<svg width="60" height="60" xmlns="http://www.w3.org/2000/svg">
 <title/>
 <desc/>

 <g>
  <title>background</title>
  <rect fill="none" id="canvas_background" height="402" width="582" y="-1" x="-1"/>
 </g>
 <g>
  <title>Layer 1</title>
  <path fill="#ffffff" id="umbrella" d="m38.999969,53l0,2c0,2.757 -2.243,5 -5,5c-2.75699,0 -4.999989,-2.243 -4.999989,-5l0,-24c0,-0.552 0.448,-1 1,-1c0.551998,0 1,0.448 1,1l0,24c0,1.653999 1.345989,3 2.999989,3c1.654011,0 3,-1.346001 3,-3l0,-2c0,-0.551998 0.44701,-1 1,-1c0.553001,0 1,0.448002 1,1m15,-27c-3.071999,0 -4.98299,1.745001 -6,3.087999c-1.016991,-1.342999 -2.92799,-3.087999 -6,-3.087999c-3.071999,0 -4.98299,1.745001 -6,3.087999c-1.016991,-1.342999 -2.92799,-3.087999 -5.999989,-3.087999c-3.07201,0 -4.983002,1.745001 -6,3.087999c-1.017,-1.342999 -2.928001,-3.087999 -6,-3.087999c-3.072011,0 -4.983001,1.745001 -6.000001,3.087999c-1.017,-1.342999 -2.92801,-3.087999 -6,-3.087999c-1.328,0 -2.39101,0.320999 -3.228,0.771c0.72,-2.539 2.02099,-6.188999 4.24,-9.804001c4.328,-7.051999 10.306999,-11.249999 17.813999,-12.536999c-10.462009,6.658 -13.652009,19.713 -13.799999,20.341c-0.12601,0.537001 0.207,1.075001 0.745,1.202c0.07699,0.018 0.154,0.027 0.22999,0.027c0.453,0 0.863,-0.311001 0.972,-0.771c0.03601,-0.152 3.496011,-14.229 14.608001,-20.069c-4.507,8.785 -4.48699,19.356001 -4.483002,19.847c0.004002,0.549999 0.451,0.993 1,0.993l0.007002,0c0.551998,-0.004 0.997,-0.455 0.992998,-1.007c-0.00099,-0.121 -0.022999,-11.535 4.902012,-20.088c4.928989,8.546 4.999989,19.974 4.999989,20.095c0,0.552 0.448009,1 1,1c0.553001,0 1,-0.448 1,-1c0,-0.490999 -0.05899,-11.056 -4.577,-19.838c11.109001,5.84 14.567001,19.914999 14.603001,20.067c0.110001,0.461 0.52,0.771 0.973,0.771c0.076,0 0.153,-0.009001 0.23,-0.027c0.53801,-0.126999 0.87101,-0.664999 0.74501,-1.202c-0.14901,-0.628 -3.338009,-13.683 -13.799999,-20.341c7.507,1.287 13.485989,5.485 17.813999,12.536999c2.221001,3.618 3.522991,7.271002 4.24099,9.811001c-0.83699,-0.454 -1.90099,-0.778 -3.229,-0.778m5.953011,3.639c-0.457001,-2.559 -5.459,-26.923 -28.952999,-27.607l0,-1.032c0,-0.552 -0.448002,-1 -1,-1c-0.552,0 -1,0.448 -1,1l0,1.034c-24.668011,0.718 -28.948001,27.545001 -28.989001,27.82c-0.074,0.496 0.233,0.965 0.716,1.104c0.48,0.138 0.99299,-0.106001 1.193,-0.566c0.042,-0.098 1.076,-2.392 4.08,-2.392c3.55099,0 5.021,3.259001 5.08099,3.393999c0.15701,0.366001 0.517,0.603001 0.916,0.604l0.004,0c0.396,0 0.757,-0.237 0.91601,-0.599998c0.062,-0.139 1.53199,-3.398001 5.083001,-3.398001c3.550999,0 5.021,3.259001 5.08099,3.393999c0.157,0.366001 0.516998,0.603001 0.915998,0.604c0.41501,0.006002 0.760012,-0.234999 0.920012,-0.599998c0.061998,-0.139 1.53199,-3.398001 5.083,-3.398001c3.551998,0 5.020988,3.259001 5.08099,3.393999c0.157009,0.366001 0.518009,0.603001 0.916,0.604l0.004009,0c0.396,0 0.757,-0.237 0.915989,-0.599998c0.062,-0.139 1.53101,-3.398001 5.083,-3.398001c3.543011,0 5.015011,3.243 5.082001,3.396c0.157009,0.365 0.518009,0.601 0.915001,0.601999l0.004009,0c0.396,0 0.757,-0.237 0.915989,-0.599998c0.062,-0.139 1.53101,-3.398001 5.083,-3.398001c2.987011,0 4.039001,2.299 4.07901,2.389999c0.16,0.378 0.528,0.610001 0.92099,0.610001l0.02,0c0.55201,0 1,-0.448 1,-1c0,-0.127001 -0.023991,-0.249001 -0.06699,-0.361"/>
 </g>
</svg>