<?xml version="1.0" standalone="no"?>
<!DOCTYPE svg PUBLIC "-//W3C//DTD SVG 20010904//EN"
 "http://www.w3.org/TR/2001/REC-SVG-20010904/DTD/svg10.dtd">
<svg version="1.0" xmlns="http://www.w3.org/2000/svg"
 width="125.000000pt" height="125.000000pt" viewBox="0 0 125.000000 125.000000"
 preserveAspectRatio="xMidYMid meet">
<metadata>
Created by potrace 1.11, written by Peter Selinger 2001-2013
</metadata>
<g transform="translate(0.000000,125.000000) scale(0.100000,-0.100000)"
fill="#000000" stroke="none">
<path d="M472 1229 c-238 -61 -425 -267 -460 -503 -14 -101 -6 -216 21 -294
110 -317 432 -489 753 -403 387 105 572 529 389 891 -73 145 -220 262 -389
310 -84 23 -222 23 -314 -1z m305 -334 c22 -14 59 -45 81 -71 109 -122 92
-327 -34 -431 -156 -127 -395 -74 -477 106 -33 71 -31 199 5 267 31 58 91 117
145 140 88 37 204 33 280 -11z"/>
</g>
</svg>
